<?xml version="1.0"?>
<svg xmlns="http://www.w3.org/2000/svg" height="512px" viewBox="0 0 192 192" width="512px"><g><circle cx="96" cy="96" r="24" data-original="#000000" class="active-path" data-old_color="#000000" fill="#FFFFFF"/><path d="m67.379 56.647a8 8 0 0 0 10.743 3.574 39.972 39.972 0 0 1 35.756 0 8 8 0 0 0 10.743-3.574l17.9-35.793a8 8 0 0 0 -3.572-10.73 96.146 96.146 0 0 0 -85.89 0 8 8 0 0 0 -3.572 10.73z" data-original="#000000" class="active-path" data-old_color="#000000" fill="#FFFFFF"/><path d="m73.954 129.373a39.975 39.975 0 0 1 -17.879-30.966 8 8 0 0 0 -8.466-7.517l-39.946 2.4a8 8 0 0 0 -7.507 8.458 96.149 96.149 0 0 0 42.944 74.382 8 8 0 0 0 11.079-2.272l22.05-33.4a8 8 0 0 0 -2.276-11.089z" data-original="#000000" class="active-path" data-old_color="#000000" fill="#FFFFFF"/><path d="m184.337 93.288-39.946-2.4a8 8 0 0 0 -8.466 7.517 39.975 39.975 0 0 1 -17.879 30.966 8 8 0 0 0 -2.276 11.089l22.05 33.4a8 8 0 0 0 11.08 2.27 96.149 96.149 0 0 0 42.945-74.384 8 8 0 0 0 -7.508-8.458z" data-original="#000000" class="active-path" data-old_color="#000000" fill="#FFFFFF"/></g> </svg>
