<?xml version="1.0"?>
<svg xmlns="http://www.w3.org/2000/svg" id="Layer_1" enable-background="new 0 0 512.852 512.852" height="512px" viewBox="0 0 512.852 512.852" width="512px" class="hovered-paths"><g><g><ellipse cx="220.558" cy="46.814" rx="44.212" ry="44.212" transform="matrix(.076 -.997 .997 .076 157.161 263.189)" data-original="#000000" class="hovered-path active-path" data-old_color="#000000" fill="#45B103"/><path d="m216.275 246.293c-10.042 5.246-22.186 2.538-29.117-6.007l-53.583-11.382-2.283 31.422-127.313 208.624c-7.812 12.801-3.768 29.512 9.034 37.324 12.801 7.81 29.51 3.77 37.324-9.034l121.149-198.232h48.007l56.779 77.909v106.178c0 14.997 12.157 27.154 27.154 27.154s27.154-12.157 27.154-27.154v-115.05c0-5.764-1.834-11.379-5.238-16.032l-67.182-91.841 2.32-36.401-.238-.456z" data-original="#000000" class="hovered-path active-path" data-old_color="#000000" fill="#45B103"/><path d="m286.694 200.652 204.655-106.959c4.507-2.355 8.44-5.673 11.521-9.719l8.518-11.184c3.575-4.694.187-11.39-5.618-11.39-.109 0-.22.003-.33.007l-14.045.608c-5.08.22-10.05 1.554-14.557 3.91l-204.656 106.959-6.893-13.189c-2.673-5.112-8.981-7.09-14.094-4.419-5.112 2.672-7.09 8.982-4.419 14.093l9.312 17.818-20.62 10.777c1.951 5.637 2.442 11.86 1.112 18.121-.429 2.02-1.039 3.955-1.793 5.803l30.976-16.189 9.312 17.818c2.677 5.121 8.99 7.085 14.094 4.419 5.112-2.672 7.09-8.982 4.419-14.094z" data-original="#000000" class="hovered-path active-path" data-old_color="#000000" fill="#45B103"/><path d="m97.734 209.546 100.979 21.45c12.274 2.606 24.232-5.335 26.682-17.555 2.436-12.143-5.742-23.907-17.857-26.481l-61.757-13.118 10.444-9.526 54.206 11.515c7.456 1.584 13.816 5.504 18.477 10.831l9.563-4.998-3.265-6.248c-6.011-11.502-1.56-25.699 9.941-31.71 9.452-4.938 20.717-2.81 27.771 4.484l18.096.71 97.744-51.084-40.181 8.399-172.95-6.149c-12.646-.45-24.883 4.522-33.632 13.665l-56.055 58.577c-11.846 12.765-5.239 33.619 11.794 37.238z" data-original="#000000" class="hovered-path active-path" data-old_color="#000000" fill="#45B103"/></g></g> </svg>
