<?xml version="1.0"?>
<svg xmlns="http://www.w3.org/2000/svg" xmlns:xlink="http://www.w3.org/1999/xlink" version="1.1" id="Capa_1" x="0px" y="0px" viewBox="0 0 512 512" style="enable-background:new 0 0 512 512;" xml:space="preserve" width="512px" height="512px"><g><g>
	<g>
		<g>
			<path d="M173.714,438.857c0.015,5.043,4.1,9.128,9.143,9.143H192c5.043-0.015,9.128-4.1,9.143-9.143v-9.143     c-0.015-5.043-4.1-9.128-9.143-9.143h-9.143c-5.043,0.015-9.128,4.1-9.143,9.143V438.857z" data-original="#000000" class="active-path" data-old_color="#000000" fill="#344F61"/>
			<path d="M182.857,402.286H192c5.043-0.015,9.128-4.1,9.143-9.143V384h-27.429v9.143     C173.729,398.186,177.814,402.271,182.857,402.286z" data-original="#000000" class="active-path" data-old_color="#000000" fill="#344F61"/>
			<path d="M219.429,448c0.015,5.043,4.1,9.128,9.143,9.143h9.143c5.043-0.015,9.128-4.1,9.143-9.143v-18.286     c-0.015-5.043-4.1-9.128-9.143-9.143h-9.143c-5.043,0.015-9.128,4.1-9.143,9.143V448z" data-original="#000000" class="active-path" data-old_color="#000000" fill="#344F61"/>
			<path d="M146.286,402.286c5.043-0.015,9.128-4.1,9.143-9.143V384H128v9.143c0.015,5.043,4.1,9.128,9.143,9.143H146.286z" data-original="#000000" class="active-path" data-old_color="#000000" fill="#344F61"/>
			<path d="M18.286,228.846c-5.531,0.467-10.656,3.095-14.263,7.314c-3.215,3.721-4.591,8.687-3.749,13.531l11.429,62.537     c1.332,4.838,5.872,8.081,10.88,7.771h13.989v-65.737C25.732,250.487,18.42,240.323,18.286,228.846z" data-original="#000000" class="active-path" data-old_color="#000000" fill="#344F61"/>
			<path d="M356.571,429.44v9.417c-0.044,15.13-12.299,27.384-27.429,27.429H320c-4.723-0.018-9.359-1.279-13.44-3.657     c-4.989,7.968-13.73,12.805-23.131,12.8h-9.143c-6.771-0.017-13.291-2.56-18.286-7.131c-4.995,4.571-11.515,7.114-18.286,7.131     h-9.143c-9.401,0.005-18.142-4.832-23.131-12.8c-4.081,2.378-8.717,3.639-13.44,3.657h-9.143     c-15.13-0.044-27.384-12.299-27.429-27.429v-9.143c0.014-4.197,1.016-8.331,2.926-12.069c-3.737,1.909-7.872,2.912-12.069,2.926     h-9.143c-15.13-0.044-27.384-12.299-27.429-27.429V384H60.983c4.986,10.945,12.248,20.701,21.303,28.617l69.12,60.709     C179.79,498.271,216.292,512.02,254.08,512h3.84c37.788,0.02,74.29-13.729,102.674-38.674l39.223-34.469H384     C374.069,438.829,364.425,435.518,356.571,429.44z" data-original="#000000" class="active-path" data-old_color="#000000" fill="#344F61"/>
			<path d="M101.669,111.36c10.422-7.041,22.714-10.799,35.291-10.789h156.251c2.721,0.014,5.306-1.194,7.04-3.291l1.737-2.103     c-5.878-4.559-9.32-11.578-9.326-19.017V64c-0.015-5.043-4.1-9.128-9.143-9.143h-13.166c-8.451,0.002-16.431-3.893-21.629-10.556     c-5.198-6.663-7.034-15.351-4.977-23.547c0-0.183,0.274-0.914,0.274-1.006c0.838-3.8-0.858-7.708-4.206-9.691L222.994,0h-58.423     c-70.629,0.067-127.883,57.28-128,127.909V228.48c-0.041,2.382,0.922,4.671,2.651,6.309c0.288,0.379,0.626,0.718,1.006,1.006     l38.309-95.726C83.175,128.385,91.238,118.377,101.669,111.36z" data-original="#000000" class="active-path" data-old_color="#000000" fill="#344F61"/>
			<path d="M261.669,24.503c0,0.091-0.274,0.914-0.274,1.006c-0.611,2.633,0.03,5.401,1.737,7.497     c1.712,2.259,4.388,3.58,7.223,3.566h13.166C298.65,36.616,310.904,48.87,310.949,64v12.16c0,3.383,2.743,6.126,6.126,6.126     h12.16c15.13,0.044,27.384,12.299,27.429,27.429v9.143c0.015,5.043,4.1,9.128,9.143,9.143h54.217     c1.195-0.023,2.389,0.069,3.566,0.274c7.844,0.992,14.86,5.369,19.2,11.977l5.303,7.954l0.183-21.851     c-0.105-6.794-4.031-12.949-10.149-15.909c-4.476-2.272-7.745-6.375-8.96-11.246l-3.017-12.16     c-1.755-7.033-7.489-12.372-14.629-13.623v8.869c-0.045,15.13-12.299,27.384-27.429,27.429c-5.049,0-9.143-4.093-9.143-9.143     c0-5.049,4.093-9.143,9.143-9.143c5.043-0.015,9.128-4.1,9.143-9.143c0-4.021-0.075-8.023,0.062-12.029     c-0.01-4.392-0.71-8.755-2.074-12.931c-3.02-12.226-14.012-20.801-26.606-20.754h-5.76c-0.729-0.091-1.466-0.091-2.194,0     c-0.044,15.13-12.299,27.384-27.429,27.429c-5.049,0-9.143-4.093-9.143-9.143c0-5.049,4.093-9.143,9.143-9.143     c5.043-0.015,9.128-4.1,9.143-9.143v-6.309c-1.938-1.282-3.745-2.752-5.394-4.389l-3.291-3.383     c-8.586-8.574-20.232-13.377-32.366-13.349h-36.297C262.662,14.104,262.884,19.423,261.669,24.503z" data-original="#000000" class="active-path" data-old_color="#000000" fill="#344F61"/>
			<path d="M228.571,402.286h9.143c5.043-0.015,9.128-4.1,9.143-9.143V384h-27.429v9.143     C219.444,398.186,223.528,402.271,228.571,402.286z" data-original="#000000" class="active-path" data-old_color="#000000" fill="#344F61"/>
			<path d="M265.143,448c0.015,5.043,4.1,9.128,9.143,9.143h9.143c5.043-0.015,9.128-4.1,9.143-9.143v-18.286     c-0.015-5.043-4.1-9.128-9.143-9.143h-9.143c-5.043,0.015-9.128,4.1-9.143,9.143V448z" data-original="#000000" class="active-path" data-old_color="#000000" fill="#344F61"/>
			<path d="M209.554,226.377c-4.73,0.764-9.36,2.052-13.806,3.84c-11.424,4.442-23.502,6.975-35.749,7.497     c-12.247-0.522-24.324-3.055-35.749-7.497c-4.445-1.788-9.076-3.076-13.806-3.84c-0.583,2.206-0.829,4.487-0.731,6.766     c0,27.772,22.514,50.286,50.286,50.286s50.286-22.514,50.286-50.286C210.384,230.864,210.137,228.583,209.554,226.377z" data-original="#000000" class="active-path" data-old_color="#000000" fill="#344F61"/>
			<path d="M361.143,192c-20.339,0-38.675,12.252-46.458,31.042c-7.783,18.79-3.481,40.419,10.901,54.801     c14.382,14.382,36.01,18.684,54.801,10.901c18.79-7.783,31.042-26.119,31.042-46.458C411.38,214.534,388.895,192.049,361.143,192     z" data-original="#000000" class="active-path" data-old_color="#000000" fill="#344F61"/>
			<path d="M507.977,236.16c-4.233-4.967-10.482-7.756-17.006-7.589h-15.543V320h13.989c4.979,0.309,9.504-2.885,10.88-7.68     l11.429-62.629C512.568,244.847,511.192,239.881,507.977,236.16z" data-original="#000000" class="active-path" data-old_color="#000000" fill="#344F61"/>
			<path d="M456.777,173.623c-8.768-0.304-16.86-4.791-21.76-12.069l-7.406-11.246c-1.471-2.211-3.851-3.652-6.491-3.931     c-0.308,0.015-0.616-0.016-0.914-0.091h-54.4c-15.13-0.044-27.384-12.299-27.429-27.429v-9.143     c-0.015-5.043-4.1-9.128-9.143-9.143h-7.863l-7.04,8.411c-1.059,1.137-2.189,2.206-3.383,3.2v52.389     c0,5.049-4.093,9.143-9.143,9.143c-5.049,0-9.143-4.093-9.143-9.143v-45.714h-18.286v18.286c0,5.049-4.093,9.143-9.143,9.143     c-5.049,0-9.143-4.093-9.143-9.143v-18.286H136.96c-8.932-0.014-17.662,2.662-25.051,7.68     c-7.41,4.925-13.124,12.012-16.366,20.297L54.857,248.503v105.6c0.017,3.888,0.323,7.769,0.914,11.611h291.657     c5.043,0.015,9.128,4.1,9.143,9.143v18.286c0.044,15.13,12.299,27.384,27.429,27.429h36.663l9.051-7.954     c13.768-11.646,23.073-27.704,26.331-45.44c0.74-4.319,1.107-8.693,1.097-13.074V173.714h-0.091     C456.96,173.714,456.869,173.623,456.777,173.623z M160,301.714c-7.794-0.011-15.528-1.372-22.857-4.023v13.166     c0,5.049-4.093,9.143-9.143,9.143c-5.049,0-9.143-4.093-9.143-9.143v-22.949c-3.26-2.53-6.317-5.312-9.143-8.32v1.646     c0,5.049-4.093,9.143-9.143,9.143c-5.049,0-9.143-4.093-9.143-9.143V235.52c0-0.183,0.091-0.274,0.091-0.457     c0-0.64-0.091-1.28-0.091-1.92c-0.92-8.182,2.141-16.308,8.229-21.851c8.411-5.943,18.651-2.469,30.537,1.554     c9.503,3.826,19.575,6.05,29.806,6.583c10.231-0.533,20.302-2.757,29.806-6.583c11.886-4.023,22.126-7.497,30.537-1.554     c4.705,3.793,7.566,9.415,7.863,15.451c0.166,0.6,0.288,1.211,0.366,1.829v54.857c0,5.049-4.093,9.143-9.143,9.143     s-9.143-4.093-9.143-9.143v-3.84C197.347,293.659,179.115,301.681,160,301.714z M299.429,335.177     c-5.825,6.935-14.122,11.329-23.131,12.251c-3.864-0.156-7.671-0.992-11.246-2.469l-1.28-0.549     c-3.647-1.235-7.55-1.518-11.337-0.823c-1.616,0.342-3.205,0.8-4.754,1.371c-3.818,1.516-7.871,2.351-11.977,2.469     c-9.01-0.923-17.306-5.317-23.131-12.251c-3.327-3.788-2.956-9.555,0.829-12.885s9.552-2.965,12.886,0.816     c2.454,2.92,5.739,5.025,9.417,6.034c2.135-0.221,4.229-0.744,6.217-1.554c2.367-0.809,4.779-1.481,7.223-2.011     c6.914-1.247,14.033-0.68,20.663,1.646l1.554,0.549c1.567,0.704,3.232,1.166,4.937,1.371c3.672-1.024,6.953-3.126,9.417-6.034     c3.334-3.781,9.101-4.147,12.886-0.816C302.385,325.623,302.755,331.389,299.429,335.177z M429.684,244.33     c-1.105,37.058-31.466,66.527-68.541,66.527c-4.606,0.01-9.201-0.449-13.714-1.371V320c0,5.049-4.093,9.143-9.143,9.143     c-5.049,0-9.143-4.093-9.143-9.143v-17.097c-6.848-3.664-13.029-8.454-18.286-14.171v3.84c0,5.049-4.093,9.143-9.143,9.143     s-9.143-4.093-9.143-9.143v-54.857c0.047-0.525,0.139-1.045,0.274-1.554c3.312-36.927,35.375-64.534,72.384-62.324     C402.239,176.046,430.789,207.272,429.684,244.33z" data-original="#000000" class="active-path" data-old_color="#000000" fill="#344F61"/>
			<path d="M320,402.286h9.143c5.043-0.015,9.128-4.1,9.143-9.143V384h-27.429v9.143C310.872,398.186,314.957,402.271,320,402.286z" data-original="#000000" class="active-path" data-old_color="#000000" fill="#344F61"/>
			<path d="M274.286,402.286h9.143c5.043-0.015,9.128-4.1,9.143-9.143V384h-27.429v9.143     C265.158,398.186,269.242,402.271,274.286,402.286z" data-original="#000000" class="active-path" data-old_color="#000000" fill="#344F61"/>
			<path d="M310.857,438.857c0.015,5.043,4.1,9.128,9.143,9.143h9.143c5.043-0.015,9.128-4.1,9.143-9.143v-9.143     c-0.015-5.043-4.1-9.128-9.143-9.143H320c-5.043,0.015-9.128,4.1-9.143,9.143V438.857z" data-original="#000000" class="active-path" data-old_color="#000000" fill="#344F61"/>
		</g>
	</g>
</g></g> </svg>
