<?xml version="1.0"?>
<svg xmlns="http://www.w3.org/2000/svg" id="Capa_1" enable-background="new 0 0 511 511" height="512px" viewBox="0 0 511 511" width="512px"><g><path id="XMLID_886_" d="m122.471 155.23v-10.199c0-12.641-5.476-27.203-14.649-38.954-10.884-13.943-24.92-21.621-39.523-21.621s-28.64 7.678-39.522 21.621c-9.173 11.751-14.649 26.313-14.649 38.954v10.199z" data-original="#000000" class="active-path" data-old_color="#000000" fill="#344F61"/><path id="XMLID_889_" d="m136.598 355.172v-169.942h-136.598v169.942zm-83.299-137.531h30v104.997h-30z" data-original="#000000" class="active-path" data-old_color="#000000" fill="#344F61"/><path id="XMLID_891_" d="m14.127 385.172v11.372h-14.127v30h14.127 108.344 14.127v-30h-14.127v-11.372z" data-original="#000000" class="active-path" data-old_color="#000000" fill="#344F61"/><path id="XMLID_894_" d="m187.201 185.23v169.942h136.598v-169.942zm83.299 137.407h-30v-104.996h30z" data-original="#000000" class="active-path" data-old_color="#000000" fill="#344F61"/><path id="XMLID_895_" d="m309.672 155.23v-10.199c0-12.641-5.477-27.203-14.649-38.954-10.883-13.943-24.919-21.621-39.523-21.621s-28.64 7.678-39.522 21.621c-9.173 11.751-14.649 26.313-14.649 38.954v10.199z" data-original="#000000" class="active-path" data-old_color="#000000" fill="#344F61"/><path id="XMLID_909_" d="m201.329 385.172v11.372h-14.128v30h14.128 108.343 14.127v-30h-14.127v-11.372z" data-original="#000000" class="active-path" data-old_color="#000000" fill="#344F61"/><path id="XMLID_914_" d="m374.402 185.23v169.942h136.598v-169.942zm83.299 137.407h-30v-104.996h30z" data-original="#000000" class="active-path" data-old_color="#000000" fill="#344F61"/><path id="XMLID_915_" d="m496.873 155.23v-10.199c0-12.641-5.477-27.203-14.649-38.954-10.883-13.943-24.919-21.621-39.522-21.621s-28.64 7.678-39.522 21.621c-9.173 11.751-14.649 26.313-14.649 38.954v10.199z" data-original="#000000" class="active-path" data-old_color="#000000" fill="#344F61"/><path id="XMLID_916_" d="m388.529 385.172v11.372h-14.127v30h14.127 108.344 14.127v-30h-14.127v-11.372z" data-original="#000000" class="active-path" data-old_color="#000000" fill="#344F61"/></g> </svg>
